# xmcd CD database file
#
# Track frame offsets:
#	150
#	14586
#	27700
#	41461
#	59215
#	71490
#	90790
#	107581
#	121126
#	138541
#	153910
#
# Disc length: 2239 seconds
#
# Revision: 2
# Processed by: cddbd v1.5.2PL0 Copyright (c) Steve Scherf et al.
# Submitted via: CDex 1.81
#
DISCID=9108bd0b
DTITLE=Patterson Singers , The - The Patterson Singers
DYEAR=1972
DGENRE=Soul
TTITLE0=My World Tumbles Down (G.Soule-T.Woodford)
TTITLE1=How Can You Say That Ain't Love (Pam Sawyer-Joe Hinton)
TTITLE2=Love Is Color Blind (G.Soule-D.Covay)
TTITLE3=Throw A Farewell Kiss (Eddie Holland-Norman Whitfield)
TTITLE4=It Was Almost Something (W.Whiterspoon-R.Miner)
TTITLE5=The Only Time You Say You Love Me (Philip Mitchell)
TTITLE6=A Letter Full Of Tears (Don Covay)
TTITLE7=I Wanna Be Free (Josh Randolph)
TTITLE8=Working Together (Ike Turner)
TTITLE9=That's Understanding (D.Crawford-W.Martin)
TTITLE10=Your Love Is Something Else Again (Mac Rebennack-Jesse Hill)
EXTD=YEAR: 1972
EXTT0=
EXTT1=
EXTT2=
EXTT3=
EXTT4=
EXTT5=
EXTT6=
EXTT7=
EXTT8=
EXTT9=
EXTT10=
PLAYORDER=
